<svg 
    xmlns="http://www.w3.org/2000/svg" 
    width="200" 
    height="200" 
    viewBox="0 0 24 24"
>
    <g 
        fill="none" 
        stroke-linecap="round" 
        stroke-linejoin="round" 
        stroke-width="2"
    >
        <path d="M0 0h24v24H0z"/>
        <path 
            fill="#ffc994"
            d="M9.586 4L3 10.586a2 2 0 0 0 0 2.828L9.586 20a2 2 0 0 0 2.18.434l.145-.068A2 2 0 0 0 13 18.586V16h7a2 2 0 0 0 2-2v-4l-.005-.15A2 2 0 0 0 20 8l-7-.001V5.414A2 2 0 0 0 9.586 4z"
        />
    </g>
</svg>


